<svg width="46" height="51" viewBox="0 0 46 51" fill="none" xmlns="http://www.w3.org/2000/svg">
<path d="M30.3199 16.8183C30.2946 16.8183 30.2713 16.8247 30.2502 16.8395C30.2291 16.8542 30.2122 16.8732 30.2038 16.8964C30.1932 16.9197 30.1932 16.9471 30.1996 16.9724C30.2059 16.9978 30.2207 17.021 30.2397 17.0379C31.9009 18.4859 33.0808 20.4046 33.6212 22.5366C34.1616 24.6685 34.037 26.9165 33.2645 28.9767C32.4919 31.0369 31.1072 32.8142 29.2961 34.0722C27.485 35.3303 25.332 36.0079 23.1241 36.0142H23.0798C21.4185 36.0184 19.7784 35.6385 18.2903 34.9039C18.2713 34.8912 18.2502 34.8849 18.227 34.8849C18.2038 34.8849 18.1826 34.8912 18.1636 34.9039C17.8977 35.0939 17.6423 35.2986 17.4016 35.5203C16.5383 36.3097 15.8481 37.268 15.3752 38.3382C14.9024 39.4063 14.6597 40.5609 14.6597 41.7303C14.6576 42.9926 14.9911 44.2147 15.4913 45.3736C18.2755 51.8264 32.4138 51.5646 37.7964 47.9488C43.2888 44.2591 46.2651 39.4928 45.9273 32.1788C45.8112 29.6564 44.7558 26.9081 43.483 24.7002C42.0793 22.4352 40.1563 20.5397 37.8703 19.1677C35.5843 17.7957 33.0006 16.9872 30.3389 16.812L30.3199 16.8183Z" fill="#E55775"/>
<path d="M15.8713 33.6691C15.8967 33.6691 15.9199 33.6627 15.941 33.648C15.9621 33.6332 15.979 33.6142 15.9874 33.591C15.998 33.5677 15.998 33.5403 15.9917 33.515C15.9853 33.4896 15.9705 33.4664 15.9515 33.4495C14.2903 32.0015 13.1104 30.0828 12.57 27.9508C12.0296 25.8189 12.1542 23.5709 12.9267 21.5107C13.6993 19.4506 15.084 17.6732 16.8951 16.4152C18.7062 15.1571 20.8592 14.4796 23.0671 14.4732H23.1115C24.7727 14.469 26.4128 14.849 27.9009 15.5835C27.9199 15.5962 27.941 15.6025 27.9643 15.6025C27.9875 15.6025 28.0086 15.5962 28.0276 15.5835C28.2935 15.3935 28.5489 15.1888 28.7896 14.9672C29.6529 14.1777 30.3431 13.2194 30.816 12.1492C31.2888 11.0811 31.5315 9.92651 31.5315 8.75711C31.5337 7.49484 31.2001 6.27267 30.6999 5.11383C27.9157 -1.33896 13.7774 -1.07722 8.39479 2.53862C2.90454 6.22835 -0.0717266 10.9946 0.263895 18.3086C0.37999 20.831 1.4354 23.5793 2.70823 25.7872C4.11193 28.0522 6.03489 29.9477 8.32091 31.3197C10.6069 32.6918 13.1906 33.5002 15.8523 33.6754L15.8713 33.6691Z" fill="#E55775"/>
</svg>
